<?xml version="1.0" encoding="UTF-8"?>
<svg width="458.16pt" height="79.11pt" version="1.1" viewBox="0 0 458.16 79.11" xmlns="http://www.w3.org/2000/svg" xmlns:xlink="http://www.w3.org/1999/xlink">
 <path d="m429.22 20.902c2.8069-0.55027 7.5092 0.05009 10.822 1.5285 3.3183 1.4785 6.8645 3.9575 6.8645 3.9575l10.727-19.298s-8.6098-6.9089-24.54-6.681c-15.941 0.23344-28.103 10.005-31.699 15.202-3.5906 5.2025-6.9978 12.89-5.108 20.265 1.8898 7.3703 8.5708 10.588 13.912 12.061 5.3415 1.4785 8.5208 1.3896 10.961 2.1733 2.4401 0.77816 3.4517 1.9732 3.0848 3.863-0.36685 1.8954-2.4345 4.3299-8.204 4.4188-5.7528 0.10003-12.034-3.5462-14.774-5.7973-1.2895-1.0561-2.668-2.2066-2.668-2.2066l-12.073 21.322s13.173 7.5926 29.937 6.959c16.764-0.65588 27.08-8.3874 31.315-14.196 4.241-5.8028 7.5092-14.251 4.7023-23.078-2.6235-8.2373-14.741-11.278-17.231-11.689-1.7453-0.28902-7.5092-1.6175-8.5152-2.0788-1.006-0.46689-2.0288-0.96158-1.9343-2.7569 0.0889-1.8009 1.6175-3.4072 4.4188-3.9686m-61.486-19.243-11.934 75.854h28.23l11.939-75.854zm-223.57 48.357 8.8432-23.122h1.0116v3.5017c0 1.8787 0.27791 5.6639 0.27791 5.6639l1.195 13.957zm218.32-48.357h-31.871l-7.2202 11.133s-1.0727 1.4785-1.7231 2.6791c-0.63919 1.2006-1.5063 3.1349-1.5063 3.1349h-0.65032s-0.14451-1.2951-0.32794-2.6291c-0.18343-1.3395-0.59473-2.479-0.59473-2.479l-4.4688-11.839h-31.832l18.804 35.506-31.282 37.535-19.899-37.596 29.898-35.445h-31.927s-7.1813 11.044-8.5097 13.129c-1.3396 2.0621-1.9843 3.8185-1.9843 3.8185h-0.65031s-0.13333-1.5674-0.27235-2.4901c-0.13332-0.92268-0.7337-2.907-0.7337-2.907l-4.3799-11.55h-31.782l18.843 35.506-30.537 36.668-15.057-72.174h-31.282l-35.873 69.917-0.78927-69.917h-28.736l-17.003 39.736h-0.64477l-4.4633-39.736h-29.02l-24.456 75.715h27.269l10.5-41.454 0.92822 0.04439s-0.05564 2.768-0.05564 4.3299c0 1.5619 0.41687 5.5749 0.41687 5.5749l4.9746 31.643h16.491s17.225-35.278 17.964-37.085c0.73368-1.7898 1.6564-4.4633 1.6564-4.4633h0.5058s-2.3122 36.346-2.4845 38.925c-0.19454 2.5679-0.09448 2.5679-0.09448 2.5679h53.937l3.7296-9.3379h21.366l1.0116 9.3935h58.317s11.839-16.769 12.384-17.503c0.55582-0.7337 1.7119-3.2238 1.7119-3.2238h0.82263s-0.039 0.64477 0.0499 1.7509c0.0889 1.095 0.6003 2.1677 0.6003 2.1677l6.492 16.808h60.657s11.422-16.169 12.023-16.997c0.6003-0.83373 2.0732-3.6851 2.0732-3.6851h0.78373s0 0.40576 0.0945 1.284c0.0889 0.87821 0.50024 2.2233 0.50024 2.2233l6.6366 17.175h32.105l-21.283-40.409z" fill="#ff4713" fill-rule="evenodd" stroke="#ff4713" stroke-miterlimit="10" stroke-width=".80679"/>
</svg>
